<?xml version="1.0" standalone="no"?>
<!DOCTYPE svg PUBLIC "-//W3C//DTD SVG 20010904//EN"
 "http://www.w3.org/TR/2001/REC-SVG-20010904/DTD/svg10.dtd">
<svg version="1.0" xmlns="http://www.w3.org/2000/svg"
 width="1280.000000pt" height="720.000000pt" viewBox="0 0 1280.000000 720.000000"
 preserveAspectRatio="xMidYMid meet">

<g transform="translate(0.000000,720.000000) scale(0.100000,-0.100000)"
fill="#000000" stroke="none">
<path d="M5890 6820 l0 -80 -144 0 c-79 0 -151 -3 -160 -6 -13 -5 -16 -22 -16
-80 l0 -74 -160 0 -160 0 0 -80 0 -80 -80 0 -80 0 0 -80 0 -79 -77 -3 -78 -3
-3 -78 -3 -78 236 2 c130 0 238 -1 240 -3 2 -1 5 -37 7 -78 l3 -75 137 3 c75
2 146 1 157 -3 20 -6 21 -13 21 -165 l0 -159 -72 -3 -73 -3 -3 -77 -3 -78
-239 0 -240 0 0 80 0 80 -159 0 c-182 0 -173 -6 -164 100 l6 61 -79 -3 -79 -3
-3 -237 -2 -238 80 0 80 0 0 -161 0 -162 64 7 c94 9 96 8 96 -85 l0 -79 80 0
80 0 0 -80 0 -80 160 0 160 0 0 -80 0 -80 80 0 80 0 0 -80 0 -80 -64 0 c-96 0
-96 0 -96 -86 l0 -74 -320 0 -320 0 0 -80 0 -80 54 6 c30 4 66 4 80 0 25 -6
26 -9 26 -86 l0 -80 80 0 80 0 0 -80 0 -80 160 0 160 0 0 -77 0 -78 400 -1
400 0 0 78 0 78 80 0 80 0 0 -160 0 -160 -317 -2 -318 -3 -3 -77 -3 -78 -79 0
-80 0 0 -160 0 -159 -77 -3 -78 -3 -3 -157 -3 -158 -79 0 -80 0 0 -80 0 -79
-77 -3 -78 -3 -3 -77 -3 -78 -80 0 -80 0 3 -77 3 -77 57 3 c96 4 98 2 98 -90
l0 -79 80 0 80 0 0 -81 0 -81 68 2 c37 2 73 2 80 1 8 -1 12 -23 12 -75 0 -42
5 -78 11 -81 5 -4 41 -4 80 0 l69 7 0 74 0 74 80 0 80 0 0 160 c0 95 4 160 10
160 5 0 10 30 12 67 3 72 12 82 62 69 18 -4 22 -12 21 -50 0 -41 -3 -47 -30
-58 -27 -12 -19 -13 80 -15 164 -4 155 1 155 -93 l0 -80 80 0 80 0 0 -160 c0
-145 -2 -160 -17 -161 -10 0 -46 0 -80 1 l-63 1 0 -400 0 -401 -80 0 -80 0 0
-80 0 -80 80 0 80 0 0 -80 0 -80 -80 0 -80 0 0 -80 0 -80 400 0 400 0 0 80 0
80 240 0 240 0 0 -80 0 -80 80 0 80 0 0 80 0 80 80 0 80 0 0 -80 0 -80 400 0
400 0 0 160 0 159 33 6 c17 3 88 5 157 3 l125 -3 5 -80 5 -80 77 -3 77 -3 3
-77 3 -77 315 0 315 0 0 75 0 75 83 3 82 3 0 159 0 160 80 0 80 0 0 80 0 80
-80 0 -80 0 0 -80 0 -80 -80 0 -80 0 0 -80 0 -80 -80 0 -80 0 0 -80 0 -80
-240 0 -240 0 0 80 0 80 -80 0 -80 0 0 160 0 160 -160 0 -160 0 0 160 0 160
80 0 80 0 0 320 0 320 -160 0 -160 0 0 80 0 80 -80 0 -80 0 0 80 0 80 -80 0
-80 0 0 160 0 160 63 0 c34 0 106 3 160 7 l97 6 0 74 0 73 160 0 160 0 0 -80
0 -79 80 2 80 2 0 78 0 77 80 0 80 0 0 -77 0 -78 317 2 318 3 3 74 3 75 77 3
77 3 3 78 3 77 79 0 80 0 0 79 0 79 31 6 c17 3 53 6 80 6 l49 0 0 155 0 155
80 0 80 0 0 240 0 240 -80 0 -80 0 0 80 0 80 -80 0 -80 0 0 -80 0 -80 -80 0
-80 0 0 -80 0 -80 -80 0 -80 0 0 80 0 80 -80 0 -80 0 0 80 0 80 -160 0 -160 0
0 -80 0 -80 -80 0 -80 0 0 -160 0 -160 -80 0 -80 0 0 -80 0 -80 -80 0 -80 0 0
-80 c0 -69 -2 -80 -17 -80 -10 0 -154 0 -320 0 l-303 1 0 -81 0 -80 -160 0
-160 0 0 80 0 80 -160 0 -161 0 3 78 3 77 78 3 77 3 0 79 0 80 -80 0 -80 0 0
80 0 80 240 0 240 0 0 -80 0 -80 80 0 80 0 0 80 0 80 80 0 80 0 0 80 0 80 160
0 160 0 0 80 0 80 80 0 80 0 0 80 0 80 160 0 160 0 0 160 0 160 -160 0 -160 0
0 160 0 160 80 0 80 0 0 80 0 79 -77 3 -78 3 -3 78 -3 77 81 0 80 0 0 80 0 80
-84 0 -83 0 5 26 c3 19 1 25 -7 20 -6 -4 -11 -2 -11 3 0 6 5 11 11 11 6 0 10
15 9 33 -1 17 -2 184 -1 370 l1 337 80 0 80 0 0 160 0 160 -160 0 -160 0 0
-80 0 -80 -160 0 -160 0 0 -80 0 -80 80 0 80 0 0 -80 0 -80 80 0 80 0 0 -160
c0 -121 3 -160 13 -161 6 0 38 0 70 1 36 1 57 -3 57 -10 0 -6 -4 -9 -9 -6 -5
4 -12 0 -14 -6 -4 -10 -6 -10 -6 0 -1 7 -16 12 -41 12 l-39 0 -3 -127 c-2 -77
-7 -128 -13 -128 -5 0 -11 11 -12 25 l-2 25 8 -25 c6 -16 9 22 8 105 l-1 130
-6 -95 -6 -95 -2 98 -2 97 -162 -2 -161 -3 1 -72 c1 -40 -2 -73 -7 -73 -4 0
-8 6 -9 13 -9 87 -16 109 -38 119 -15 7 -32 7 -53 0 -24 -9 -33 -7 -50 7 -12
10 -21 23 -21 29 0 6 -12 18 -27 26 l-28 16 25 -3 c23 -2 25 1 25 38 l0 40
-58 0 c-42 0 -56 3 -52 13 3 9 -19 12 -90 12 l-95 0 0 80 0 80 -80 0 -80 0 0
80 0 80 -80 0 -80 0 0 160 0 160 -80 0 -80 0 0 80 0 80 160 0 160 0 0 80 0 80
-160 0 -160 0 0 80 0 80 -560 0 -560 0 0 -80z m-715 -520 c3 -6 -4 -10 -17
-10 -18 0 -20 2 -8 10 19 12 18 12 25 0z m1675 -120 l0 -80 80 0 80 0 0 -80 0
-80 80 0 80 0 0 -80 0 -80 -240 0 -240 0 0 240 0 240 80 0 80 0 0 -80z m-640
-400 l0 -160 -75 0 -75 0 0 -160 0 -160 -160 0 -160 0 0 -80 0 -80 -80 0 -80
0 0 80 0 80 80 0 80 0 0 80 0 80 81 0 81 0 -7 160 -7 160 81 0 81 0 0 80 0 80
80 0 80 0 0 -160z m-430 -120 c0 -5 -4 -10 -10 -10 -5 0 -10 5 -10 10 0 6 5
10 10 10 6 0 10 -4 10 -10z m1900 -4 c0 -2 -7 -6 -15 -10 -8 -3 -15 -1 -15 4
0 6 7 10 15 10 8 0 15 -2 15 -4z m-3 -32 c-3 -3 -12 -4 -19 -1 -8 3 -5 6 6 6
11 1 17 -2 13 -5z m-493 -16 c-5 -7 -10 -115 -12 -240 l-4 -228 81 0 81 0 0
80 0 80 79 0 c44 0 81 4 83 10 2 6 1 -31 -1 -80 l-3 -91 83 3 84 3 -1 28 c-1
30 8 28 13 -3 1 -10 -2 -22 -7 -25 -6 -3 -10 -42 -10 -86 l0 -80 83 3 82 3 -1
28 c-1 30 8 28 13 -3 1 -10 -2 -22 -7 -25 -6 -3 -10 -42 -10 -86 l0 -79 80 0
80 0 0 -240 0 -240 160 0 160 0 0 -160 0 -159 -157 -3 -158 -3 -3 -77 -3 -78
-399 0 -399 0 -3 78 -3 77 -157 3 -158 3 0 159 0 160 80 0 80 0 0 80 0 80 80
0 80 0 0 320 0 320 -160 0 -160 0 0 80 0 80 -160 0 -160 0 0 80 0 80 80 0 80
0 0 80 0 80 251 0 c195 0 249 -3 243 -12z m283 6 c-3 -3 -12 -4 -19 -1 -8 3
-5 6 6 6 11 1 17 -2 13 -5z m413 -100 c0 -2 -11 -4 -25 -4 -14 0 -25 4 -25 9
0 4 11 6 25 3 14 -2 25 -6 25 -8z m-413 0 c-3 -3 -12 -4 -19 -1 -8 3 -5 6 6 6
11 1 17 -2 13 -5z m-2 -32 c-3 -3 -11 0 -18 7 -9 10 -8 11 6 5 10 -3 15 -9 12
-12z m375 14 c0 -2 -7 -6 -15 -10 -8 -3 -15 -1 -15 4 0 6 7 10 15 10 8 0 15
-2 15 -4z m-507 -22 c-5 -12 -143 -18 -143 -6 0 18 16 22 80 20 43 -2 66 -7
63 -14z m550 9 c-7 -2 -19 -2 -25 0 -7 3 -2 5 12 5 14 0 19 -2 13 -5z m-46
-19 c-3 -3 -12 -4 -19 -1 -8 3 -5 6 6 6 11 1 17 -2 13 -5z m-323 -12 c3 -5 -1
-9 -9 -9 -8 0 -12 4 -9 9 3 4 7 8 9 8 2 0 6 -4 9 -8z m136 -1 c0 -5 -9 -7 -20
-4 -11 3 -20 7 -20 9 0 2 9 4 20 4 11 0 20 -4 20 -9z m480 -40 c0 -36 -4 -51
-16 -55 -14 -5 -15 1 -12 43 l3 50 -68 -2 c-37 -1 -67 1 -67 6 0 4 36 7 80 7
l80 0 0 -49z m-90 -57 c0 -2 -11 -4 -25 -4 -14 0 -25 4 -25 9 0 4 11 6 25 3
14 -2 25 -6 25 -8z m-413 0 c-3 -3 -12 -4 -19 -1 -8 3 -5 6 6 6 11 1 17 -2 13
-5z m503 -30 c0 -24 -1 -24 -17 -9 -14 14 -14 18 -2 26 19 12 19 12 19 -17z
m-613 10 c-3 -3 -12 -4 -19 -1 -8 3 -5 6 6 6 11 1 17 -2 13 -5z m108 -12 c-3
-3 -11 0 -18 7 -9 10 -8 11 6 5 10 -3 15 -9 12 -12z m375 14 c0 -2 -7 -6 -15
-10 -8 -3 -15 -1 -15 4 0 6 7 10 15 10 8 0 15 -2 15 -4z m313 -16 c-3 -11 -7
-20 -9 -20 -2 0 -4 9 -4 20 0 11 4 20 9 20 5 0 7 -9 4 -20z m-270 3 c-7 -2
-19 -2 -25 0 -7 3 -2 5 12 5 14 0 19 -2 13 -5z m397 3 c0 -2 -6 -9 -14 -15
-11 -9 -16 -9 -22 0 -4 8 -3 9 4 5 7 -4 12 -2 12 3 0 6 5 11 10 11 6 0 10 -2
10 -4z m-443 -22 c-3 -3 -12 -4 -19 -1 -8 3 -5 6 6 6 11 1 17 -2 13 -5z m-323
-12 c3 -5 -1 -9 -9 -9 -8 0 -12 4 -9 9 3 4 7 8 9 8 2 0 6 -4 9 -8z m136 -1 c0
-5 -9 -7 -20 -4 -11 3 -20 7 -20 9 0 2 9 4 20 4 11 0 20 -4 20 -9z m-23 -97
c-3 -3 -12 -4 -19 -1 -8 3 -5 6 6 6 11 1 17 -2 13 -5z m-2 -32 c-3 -3 -11 0
-18 7 -9 10 -8 11 6 5 10 -3 15 -9 12 -12z m49 -30 c3 -5 -1 -9 -9 -9 -8 0
-12 4 -9 9 3 4 7 8 9 8 2 0 6 -4 9 -8z m136 -1 c0 -5 -9 -7 -20 -4 -11 3 -20
7 -20 9 0 2 9 4 20 4 11 0 20 -4 20 -9z m-20 -126 c0 -5 -5 -3 -10 5 -5 8 -10
20 -10 25 0 6 5 3 10 -5 5 -8 10 -19 10 -25z m-1570 -185 l0 -160 -80 0 -80 0
0 -160 0 -160 -80 0 -80 0 0 -80 0 -80 -160 0 -160 0 0 80 0 80 80 0 80 0 0
160 0 160 80 0 80 0 0 80 0 80 80 0 80 0 0 80 0 80 80 0 80 0 0 -160z m2870
-1040 l0 -80 80 0 80 0 0 -80 0 -80 -80 0 -80 0 0 80 0 80 -80 0 -80 0 0 -80
0 -80 -80 0 -80 0 0 -80 0 -80 80 0 80 0 0 -80 0 -80 -80 0 -80 0 0 -80 0 -80
80 0 80 0 0 -80 0 -80 80 0 80 0 0 240 0 240 80 0 80 0 0 -320 0 -320 -320 0
-320 0 0 80 0 80 -80 0 -80 0 0 -80 0 -80 -80 0 -80 0 0 240 0 240 80 0 80 0
0 -80 0 -80 80 0 80 0 0 240 0 240 80 0 80 0 0 160 0 160 160 0 160 0 0 -80z
m640 -161 l0 -241 -80 4 -80 3 0 -162 0 -163 -80 0 -80 0 0 240 0 240 80 0 80
0 0 160 0 160 80 0 80 0 0 -241z m-3670 -479 l0 -80 80 0 80 0 0 -400 0 -400
80 0 80 0 0 400 0 400 75 0 75 0 0 80 0 80 80 0 80 0 0 -80 0 -80 80 0 80 0 0
-160 0 -160 -160 0 -160 0 0 -80 0 -80 160 0 160 0 0 -80 0 -80 -80 0 -80 0 0
-80 0 -80 80 0 80 0 0 -80 0 -80 80 0 80 0 0 160 0 160 80 0 80 0 0 80 0 79
160 0 160 1 0 -320 0 -320 -80 0 -80 0 0 -480 0 -480 -80 0 -80 0 0 320 0 320
-80 0 -80 0 0 80 0 79 -77 3 -78 3 -3 78 -3 77 -79 0 -80 0 0 160 0 160 -80 0
-80 0 0 -80 0 -80 -75 0 -75 0 0 -80 0 -80 -160 0 -160 0 0 240 0 240 -80 0
-80 0 0 -80 0 -80 -160 0 -160 0 0 -80 0 -80 -320 0 -320 0 0 80 0 80 160 0
160 0 0 80 0 80 160 0 160 0 0 80 0 80 -80 0 -80 0 0 160 0 160 80 0 80 0 0
160 0 160 240 0 240 0 0 -80z m1748 -237 l-3 -158 -77 -3 -78 -3 0 161 0 160
80 0 81 0 -3 -157z m-2388 -1043 l0 -80 -80 0 -80 0 0 80 0 80 80 0 80 0 0
-80z m1430 -320 l0 -240 -320 0 -320 0 0 80 0 80 240 0 240 0 0 80 0 80 -80 0
-80 0 0 80 0 80 160 0 160 0 0 -240z m1280 80 l0 -160 -80 0 -80 0 0 160 0
160 80 0 80 0 0 -160z m-1920 -79 c0 -91 4 -88 -96 -83 l-64 4 0 79 0 79 80 0
80 0 0 -79z m1600 -161 l0 -80 -160 0 -160 0 0 80 0 80 160 0 160 0 0 -80z
m-800 -400 l0 -160 -80 0 -80 0 0 80 0 80 -80 0 -80 0 0 -80 0 -80 -80 0 -80
0 0 -80 0 -80 -80 0 -80 0 0 -80 0 -80 -80 0 -80 0 0 160 0 160 -80 0 -80 0 0
80 0 80 80 0 80 0 0 80 0 80 400 0 400 0 0 -160z m800 -240 l0 -80 80 0 80 0
0 -80 0 -80 -160 0 -160 0 0 80 0 80 -80 0 -80 0 0 80 0 80 160 0 160 0 0 -80z
m-2002 -33 c3 -12 -4 -17 -22 -17 -19 0 -26 5 -26 20 0 15 6 19 23 16 12 -1
23 -10 25 -19z"/>
<path d="M7218 5473 c12 -2 32 -2 45 0 12 2 2 4 -23 4 -25 0 -35 -2 -22 -4z"/>
<path d="M7768 5773 c7 -3 16 -2 19 1 4 3 -2 6 -13 5 -11 0 -14 -3 -6 -6z"/>
<path d="M7970 3460 l0 -80 80 0 80 0 0 80 0 80 -80 0 -80 0 0 -80z"/>
</g>
</svg>
